<svg width="44" height="57" viewBox="0 0 44 57" fill="none" xmlns="http://www.w3.org/2000/svg">
<g clip-path="url(#clip0)">
<path d="M25.91 24.16L20.74 42.03C20.74 42.03 20.52 52.99 21.22 55.86L18.66 56.05C18.66 56.05 18.67 43.89 18.64 41.7C18.64 41.57 18.64 41.46 18.63 41.39C18.59 40.09 14.47 36.25 14.47 36.25L16.12 35.56C16.12 35.56 18.66 37.36 19.82 39.95C19.82 39.95 23.25 24.54 24.57 22.35C25.89 20.16 25.53 23.8 25.53 23.8" fill="#B57361"/>
<path d="M30.24 11.21L30.25 11.09L29.82 12.21C30.16 12.23 33.38 12.38 38.25 9.85998C38.2 9.54998 38.14 9.22998 38.08 8.91998C33.2 11.41 30.28 11.21 30.24 11.21Z" fill="#4A89A6"/>
<path d="M38.02 8.68C36.95 3.77 34.53 0 34.53 0L30.3 10.97C30.64 10.99 33.46 11.02 38.02 8.68Z" fill="#4A89A6"/>
<path d="M32.8 12.15C30.89 12.56 29.8 12.46 29.76 12.45L29.77 12.33L28.61 15.33C28.65 15.37 28.67 15.38 28.67 15.38L28.51 15.56L27.58 17.96C28.22 17.97 32.71 17.9 38.45 14.42C38.57 12.95 38.48 11.49 38.27 10.1C35.99 11.29 34.11 11.87 32.8 12.15Z" fill="#4A89A6"/>
<path d="M27.49 18.46L27.5 18.22L26.48 20.86C26.5 20.87 26.5 20.88 26.51 20.88L26.44 20.98L25.68 22.94C26.19 22.94 31.31 22.83 37.18 19.35C37.28 19.14 37.38 18.92 37.47 18.7C37.96 17.5 38.25 16.27 38.4 15.04C32.26 18.67 27.69 18.47 27.49 18.46Z" fill="#4A89A6"/>
<path d="M29.4 22.7C27.13 23.2 25.65 23.17 25.63 23.17V23.05L24.38 26.29C24.38 26.29 33.17 27.23 36.99 19.73C34 21.45 31.26 22.3 29.4 22.7Z" fill="#4A89A6"/>
<path d="M26.48 20.86L27.5 18.22L27.51 17.98C27.51 17.98 27.54 17.98 27.59 17.98L28.52 15.58L28.36 15.76C28.17 15.6 24 11.98 22.64 7.17999C21.56 8.39999 20.64 9.78999 19.98 11.38C21.11 16.73 26.09 20.56 26.48 20.86Z" fill="#214871"/>
<path d="M28.61 15.34L29.77 12.34L29.78 12.22C29.78 12.22 29.79 12.22 29.81 12.22L30.24 11.1L30.25 10.98C30.25 10.98 30.27 10.98 30.29 10.98L34.53 0C34.53 0 33.48 0.28 31.94 0.92C31.39 1.15 30.77 1.42 30.12 1.73C30.01 1.78 29.9 1.84 29.79 1.89C30 2.5 30 3.18 29.75 3.83C29.18 5.32 27.5 6.06 26.01 5.49C25.64 5.35 25.33 5.14 25.06 4.89C24.36 5.46 23.67 6.08 23.03 6.76C24.19 11.26 28.07 14.85 28.61 15.34Z" fill="#214871"/>
<path d="M25.64 22.93C25.64 22.93 25.66 22.93 25.68 22.93L26.44 20.97L26.37 21.07C26.31 21.03 21.16 17.23 19.84 11.77C19.83 11.8 19.81 11.83 19.8 11.86C17.95 16.91 19.77 20.94 21.63 23.44C22.01 23.94 22.38 24.39 22.73 24.76C23.65 25.75 24.38 26.28 24.38 26.28L25.63 23.04L25.64 22.93Z" fill="#214871"/>
<path d="M26.48 20.86L26.44 20.97L26.51 20.87C26.51 20.87 26.5 20.87 26.48 20.86Z" fill="#4A89A6"/>
<path d="M26.37 21.07L26.44 20.97L26.48 20.86C26.08 20.56 21.11 16.73 19.99 11.38C19.93 11.51 19.88 11.64 19.83 11.78C21.16 17.23 26.31 21.03 26.37 21.07Z" fill="#4A89A6"/>
<path d="M28.61 15.34L28.52 15.58L28.68 15.4C28.67 15.4 28.65 15.38 28.61 15.34Z" fill="#4A89A6"/>
<path d="M28.36 15.76L28.52 15.58L28.61 15.34C28.06 14.85 24.18 11.26 23.03 6.75C22.9 6.89 22.77 7.03 22.64 7.17C24 11.99 28.17 15.6 28.36 15.76Z" fill="#4A89A6"/>
<path d="M27.59 17.98L27.5 18.22L27.49 18.46C27.69 18.47 32.26 18.67 38.4 15.03C38.42 14.83 38.44 14.64 38.46 14.44C32.72 17.93 28.23 17.99 27.59 17.98Z" fill="#214871"/>
<path d="M27.51 17.98L27.5 18.22L27.59 17.98C27.55 17.98 27.52 17.98 27.51 17.98Z" fill="#214871"/>
<path d="M29.82 12.22L29.77 12.34L29.76 12.46C29.81 12.46 30.89 12.57 32.8 12.16C34.1 11.88 35.99 11.3 38.28 10.12C38.27 10.04 38.25 9.95 38.24 9.87C33.38 12.38 30.16 12.24 29.82 12.22Z" fill="#214871"/>
<path d="M29.78 12.21L29.77 12.33L29.82 12.21C29.8 12.21 29.79 12.21 29.78 12.21Z" fill="#214871"/>
<path d="M30.3 10.97L30.25 11.09L30.24 11.21C30.27 11.21 33.2 11.41 38.07 8.91999C38.05 8.83999 38.04 8.75999 38.02 8.67999C33.46 11.02 30.64 10.99 30.3 10.97Z" fill="#214871"/>
<path d="M30.26 10.97L30.25 11.09L30.3 10.97C30.28 10.97 30.26 10.97 30.26 10.97Z" fill="#214871"/>
<path d="M25.68 22.93L25.63 23.05V23.17C25.65 23.17 27.13 23.19 29.4 22.7C31.26 22.29 34 21.45 36.99 19.73C37.06 19.6 37.12 19.47 37.18 19.34C31.31 22.82 26.19 22.93 25.68 22.93Z" fill="#214871"/>
<path d="M25.64 22.93V23.05L25.69 22.93C25.66 22.93 25.64 22.93 25.64 22.93Z" fill="#214871"/>
<path d="M20.62 45.15L27.74 38.85L29.07 40.65L20.2 47.02" fill="#B57361"/>
<path d="M0.0500007 23.3199C0.0500007 23.3199 -0.819999 32.8599 4.85 37.6999C10.53 42.5499 16.97 38.2799 16.97 38.2799L0.0500007 23.3199Z" fill="#98D8B8"/>
<path d="M3.82 22.92C3.24 22.94 2.7 22.97 2.23 23.01C0.900003 23.13 0.0500031 23.31 0.0500031 23.31L16.97 38.27C16.97 38.27 17.29 37.62 17.58 36.58C17.69 36.18 17.8 35.73 17.88 35.23C18.29 32.76 18.09 29.23 14.91 26.32C11.65 23.34 7.04 22.84 3.82 22.92Z" fill="#5EA57C"/>
<path d="M13.77 35.45C13.73 35.49 9.63 38.9 4.7 37.57L4.11 37C8.85 38.28 13.39 35.22 13.43 35.18L13.77 35.45Z" fill="#5EA57C"/>
<path d="M10.27 32.29C10.11 32.4 6.45001 35.09 2.17 34.34L1.88 33.78C6.01 34.5 9.93001 32.05 9.97001 32.03L10.27 32.29Z" fill="#5EA57C"/>
<path d="M11.84 33.81L11.68 33.64C11.7 33.61 13.17 30.37 11.86 24.34L12.17 24.48C12.86 27.67 12.68 29.93 12.47 31.36C12.26 32.91 11.86 33.78 11.84 33.81Z" fill="#98D8B8"/>
<path d="M12.81 34.6L12.65 34.49C12.66 34.46 14.16 30.87 12.85 24.83L13.09 24.97C13.78 28.16 13.66 30.53 13.45 32.04C13.23 33.68 12.83 34.57 12.81 34.6Z" fill="#98D8B8"/>
<path d="M34.8 36.51L34.88 36.48L32.56 37.91C32.55 37.9 32.54 37.89 32.53 37.88L32.41 38L31.13 38.79C31.12 38.78 31.11 38.77 31.1 38.76L30.98 38.88L30.62 39.1C29.42 35.53 30.31 32.68 31.04 31.16C32.63 30.22 34.39 29.82 36.08 29.72C35.18 31.31 33.9 34.14 34.8 36.51Z" fill="#A6E1BA"/>
<path d="M36.86 35.22L36.74 35.33L34.96 36.43C34.07 34.07 35.4 31.24 36.3 29.72C37.1 29.68 37.88 29.71 38.62 29.78L38.98 31.78L40.68 30.09C42.53 30.46 43.79 30.97 43.79 30.97L36.88 35.24C36.87 35.24 36.86 35.23 36.86 35.22Z" fill="#A6E1BA"/>
<path d="M29.06 40.06L29.14 40.03L27.26 41.19C27.26 41.19 25.85 36.51 28.86 32.98C28.37 34.74 28.1 37.23 29.06 40.06Z" fill="#A6E1BA"/>
<path d="M30.48 39.18L30.56 39.15L29.21 39.99C28.21 37.02 28.58 34.43 29.12 32.7C29.57 32.22 30.11 31.77 30.75 31.35C30.77 31.34 30.79 31.33 30.8 31.32C30.07 32.92 29.31 35.72 30.48 39.18Z" fill="#A6E1BA"/>
<path d="M32.56 37.92L34.88 36.49L34.96 36.46C34.96 36.45 34.96 36.45 34.95 36.44L36.73 35.34L36.61 35.45C37.67 36.6 39.42 37.27 41.67 37.37C41.78 37.37 41.89 37.38 42 37.38C41.38 38.67 40.56 39.96 39.46 41.04C37.76 40.96 35.04 40.39 32.56 37.92Z" fill="#8AC7C1"/>
<path d="M36.88 35.25L43.79 30.98C43.79 30.98 43.73 31.72 43.5 32.85C43.42 33.25 43.31 33.7 43.18 34.19C42.94 35.07 42.61 36.06 42.16 37.05C40.43 37.02 38.22 36.68 36.88 35.25Z" fill="#8AC7C1"/>
<path d="M29.21 40.01C29.21 40 29.21 40 29.2 39.99L30.55 39.15L30.63 39.12C30.63 39.12 30.63 39.11 30.62 39.1L30.98 38.88L30.87 39C33.19 41.34 35.81 42.16 37.65 42.44C37.64 42.45 37.63 42.46 37.61 42.46C34.42 44.36 31.46 43.64 29.53 42.69C29.14 42.5 28.79 42.3 28.49 42.11C27.7 41.61 27.25 41.19 27.25 41.19L29.13 40.03L29.21 40.01Z" fill="#8AC7C1"/>
<path d="M31.14 38.8L32.42 38.01L32.3 38.13C34.44 40.28 36.75 41.02 38.3 41.27C38.59 41.32 38.86 41.34 39.12 41.37C38.8 41.66 38.45 41.93 38.08 42.18C36.3 41.96 33.56 41.22 31.14 38.8Z" fill="#8AC7C1"/>
<path d="M36.88 35.25L36.73 35.34L36.85 35.23C36.86 35.23 36.87 35.24 36.88 35.25Z" fill="#A6E1BA"/>
<path d="M36.61 35.45L36.73 35.34L36.88 35.25C38.22 36.68 40.43 37.03 42.16 37.05C42.11 37.16 42.06 37.27 42 37.38C41.89 37.38 41.78 37.37 41.67 37.37C39.42 37.26 37.67 36.6 36.61 35.45Z" fill="#A6E1BA"/>
<path d="M32.56 37.92L32.41 38.01L32.53 37.89C32.54 37.9 32.55 37.91 32.56 37.92Z" fill="#A6E1BA"/>
<path d="M32.3 38.12L32.42 38L32.57 37.91C35.05 40.38 37.77 40.95 39.47 41.03C39.36 41.14 39.25 41.25 39.13 41.35C38.87 41.33 38.6 41.3 38.31 41.25C36.74 41.02 34.43 40.27 32.3 38.12Z" fill="#A6E1BA"/>
<path d="M31.14 38.8L31 38.89L31.12 38.77C31.12 38.78 31.13 38.79 31.14 38.8Z" fill="#A6E1BA"/>
<path d="M30.87 39L30.99 38.88L31.13 38.79C33.55 41.21 36.3 41.96 38.08 42.16C37.94 42.26 37.8 42.35 37.65 42.44C35.82 42.17 33.2 41.34 30.87 39Z" fill="#A6E1BA"/>
<path d="M34.95 36.44L34.88 36.48L34.8 36.51C33.89 34.14 35.18 31.31 36.09 29.73C36.16 29.73 36.22 29.72 36.29 29.72C35.39 31.25 34.06 34.08 34.95 36.44Z" fill="#8AC7C1"/>
<path d="M34.96 36.45L34.88 36.48L34.95 36.44C34.95 36.44 34.95 36.45 34.96 36.45Z" fill="#8AC7C1"/>
<path d="M30.63 39.11L30.56 39.16L30.48 39.19C29.31 35.73 30.07 32.93 30.8 31.33C30.88 31.28 30.97 31.23 31.05 31.18C30.32 32.69 29.43 35.53 30.63 39.11Z" fill="#8AC7C1"/>
<path d="M30.64 39.13L30.56 39.16L30.63 39.11C30.64 39.11 30.64 39.12 30.64 39.13Z" fill="#8AC7C1"/>
<path d="M29.21 39.99L29.14 40.03L29.06 40.06C28.1 37.23 28.38 34.74 28.86 32.99C28.94 32.89 29.03 32.8 29.11 32.7C28.58 34.43 28.21 37.02 29.21 39.99Z" fill="#8AC7C1"/>
<path d="M29.13 40.03L29.2 39.99C29.2 40 29.2 40 29.21 40.01L29.13 40.03Z" fill="#8AC7C1"/>
</g>
<defs>
<clipPath id="clip0">
<rect width="43.79" height="56.05" fill="white"/>
</clipPath>
</defs>
</svg>
